  0
SECTION
  2
HEADER
  9
$ACADVER
  1
AC1009
  9
$DWGCODEPAGE
  3
ansi_1252
  9
$INSBASE
 10
0.0
 20
0.0
 30
0.0
  9
$EXTMIN
 10
-63.91180242289821
 20
-187.0
 30
0.0
  9
$EXTMAX
 10
185.1428571428572
 20
111.0
 30
9.156078228135737
  9
$LIMMIN
 10
0.0
 20
0.0
  9
$LIMMAX
 10
12.0
 20
9.0
  9
$ORTHOMODE
 70
     0
  9
$REGENMODE
 70
     1
  9
$FILLMODE
 70
     1
  9
$QTEXTMODE
 70
     0
  9
$MIRRTEXT
 70
     1
  9
$DRAGMODE
 70
     2
  9
$LTSCALE
 40
1.0
  9
$OSMODE
 70
    37
  9
$ATTMODE
 70
     1
  9
$TEXTSIZE
 40
0.2
  9
$TRACEWID
 40
0.05
  9
$TEXTSTYLE
  7
STANDARD
  9
$CLAYER
  8
DEFAULT
  9
$CELTYPE
  6
BYLAYER
  9
$CECOLOR
 62
   256
  9
$DIMSCALE
 40
1.0
  9
$DIMASZ
 40
0.18
  9
$DIMEXO
 40
0.0625
  9
$DIMDLI
 40
0.38
  9
$DIMRND
 40
0.0
  9
$DIMDLE
 40
0.0
  9
$DIMEXE
 40
0.18
  9
$DIMTP
 40
0.0
  9
$DIMTM
 40
0.0
  9
$DIMTXT
 40
0.18
  9
$DIMCEN
 40
0.09
  9
$DIMTSZ
 40
0.0
  9
$DIMTOL
 70
     0
  9
$DIMLIM
 70
     0
  9
$DIMTIH
 70
     1
  9
$DIMTOH
 70
     1
  9
$DIMSE1
 70
     0
  9
$DIMSE2
 70
     0
  9
$DIMTAD
 70
     0
  9
$DIMZIN
 70
     0
  9
$DIMBLK
  1

  9
$DIMASO
 70
     1
  9
$DIMSHO
 70
     1
  9
$DIMPOST
  1

  9
$DIMAPOST
  1

  9
$DIMALT
 70
     0
  9
$DIMALTD
 70
     2
  9
$DIMALTF
 40
25.4
  9
$DIMLFAC
 40
1.0
  9
$DIMTOFL
 70
     0
  9
$DIMTVP
 40
0.0
  9
$DIMTIX
 70
     0
  9
$DIMSOXD
 70
     0
  9
$DIMSAH
 70
     0
  9
$DIMBLK1
  1

  9
$DIMBLK2
  1

  9
$DIMSTYLE
  2
STANDARD_ACAD
  9
$DIMCLRD
 70
     0
  9
$DIMCLRE
 70
     0
  9
$DIMCLRT
 70
     0
  9
$DIMTFAC
 40
1.0
  9
$DIMGAP
 40
0.09
  9
$LUNITS
 70
     2
  9
$LUPREC
 70
     3
  9
$SKETCHINC
 40
0.1
  9
$FILLETRAD
 40
0.0
  9
$AUNITS
 70
     0
  9
$AUPREC
 70
     0
  9
$MENU
  1
.
  9
$ELEVATION
 40
0.0
  9
$PELEVATION
 40
0.0
  9
$THICKNESS
 40
0.0
  9
$LIMCHECK
 70
     0
  9
$CHAMFERA
 40
0.0
  9
$CHAMFERB
 40
0.0
  9
$SKPOLY
 70
     0
  9
$TDCREATE
 40
2460649.540029757
  9
$TDUPDATE
 40
2460649.540048565
  9
$TDINDWG
 40
0.0000000116
  9
$TDUSRTIMER
 40
0.0000000116
  9
$USRTIMER
 70
     1
  9
$ANGBASE
 50
0.0
  9
$ANGDIR
 70
     0
  9
$PDMODE
 70
     0
  9
$PDSIZE
 40
0.0
  9
$PLINEWID
 40
0.0
  9
$COORDS
 70
     1
  9
$SPLFRAME
 70
     0
  9
$SPLINETYPE
 70
     6
  9
$SPLINESEGS
 70
     8
  9
$ATTDIA
 70
     0
  9
$ATTREQ
 70
     1
  9
$HANDLING
 70
     1
  9
$HANDSEED
  5
99
  9
$SURFTAB1
 70
     6
  9
$SURFTAB2
 70
     6
  9
$SURFTYPE
 70
     6
  9
$SURFU
 70
     6
  9
$SURFV
 70
     6
  9
$UCSNAME
  2

  9
$UCSORG
 10
0.0
 20
0.0
 30
0.0
  9
$UCSXDIR
 10
1.0
 20
0.0
 30
0.0
  9
$UCSYDIR
 10
0.0
 20
1.0
 30
0.0
  9
$PUCSNAME
  2

  9
$PUCSORG
 10
0.0
 20
0.0
 30
0.0
  9
$PUCSXDIR
 10
1.0
 20
0.0
 30
0.0
  9
$PUCSYDIR
 10
0.0
 20
1.0
 30
0.0
  9
$USERI1
 70
     0
  9
$USERI2
 70
     0
  9
$USERI3
 70
     0
  9
$USERI4
 70
     0
  9
$USERI5
 70
     0
  9
$USERR1
 40
0.0
  9
$USERR2
 40
0.0
  9
$USERR3
 40
0.0
  9
$USERR4
 40
0.0
  9
$USERR5
 40
0.0
  9
$WORLDVIEW
 70
     1
  9
$SHADEDGE
 70
     3
  9
$SHADEDIF
 70
    70
  9
$TILEMODE
 70
     1
  9
$MAXACTVP
 70
    64
  9
$PLIMCHECK
 70
     0
  9
$PEXTMIN
 10
1.000000000000000E+20
 20
1.000000000000000E+20
 30
1.000000000000000E+20
  9
$PEXTMAX
 10
-1.000000000000000E+20
 20
-1.000000000000000E+20
 30
-1.000000000000000E+20
  9
$PLIMMIN
 10
0.0
 20
0.0
  9
$PLIMMAX
 10
12.0
 20
9.0
  9
$UNITMODE
 70
     0
  9
$VISRETAIN
 70
     1
  9
$PLINEGEN
 70
     0
  9
$PSLTSCALE
 70
     1
  0
ENDSEC
  0
SECTION
  2
TABLES
  0
TABLE
  2
VPORT
 70
     1
  0
VPORT
  2
*ACTIVE
 70
     0
 10
0.0
 20
0.0
 11
1.0
 21
1.0
 12
10.42990654205607
 22
4.5
 13
0.0
 23
0.0
 14
0.5
 24
0.5
 15
0.5
 25
0.5
 16
0.0
 26
0.0
 36
1.0
 17
0.0
 27
0.0
 37
0.0
 40
9.0
 41
1.972972972850329
 42
50.0
 43
0.0
 44
0.0
 50
0.0
 51
0.0
 71
     0
 72
   100
 73
     1
 74
     3
 75
     0
 76
     0
 77
     0
 78
     0
  0
ENDTAB
  0
TABLE
  2
LTYPE
 70
     1
  0
LTYPE
  2
CONTINUOUS
 70
     0
  3
Solid line
 72
    65
 73
     0
 40
0.0
  0
ENDTAB
  0
TABLE
  2
LAYER
 70
     2
  0
LAYER
  2
0
 70
     0
 62
     7
  6
CONTINUOUS
  0
LAYER
  2
DEFAULT
 70
     0
 62
     7
  6
CONTINUOUS
  0
ENDTAB
  0
TABLE
  2
STYLE
 70
     1
  0
STYLE
  2
STANDARD
 70
     0
 40
0.0
 41
1.0
 50
0.0
 71
     0
 42
0.2
  3
txt
  4

  0
ENDTAB
  0
TABLE
  2
VIEW
 70
     0
  0
ENDTAB
  0
TABLE
  2
UCS
 70
     0
  0
ENDTAB
  0
TABLE
  2
APPID
 70
     2
  0
APPID
  2
ACAD
 70
     0
  0
APPID
  2
RHINO
 70
     0
  0
ENDTAB
  0
TABLE
  2
DIMSTYLE
 70
     1
  0
DIMSTYLE
  2
STANDARD_ACAD
 70
     0
  3

  4

  5

  6

  7

 40
1.0
 41
0.18
 42
0.0625
 43
0.38
 44
0.18
 45
0.0
 46
0.0
 47
0.0
 48
0.0
140
0.18
141
0.09
142
0.0
143
25.4
144
1.0
145
0.0
146
1.0
147
0.09
 71
     0
 72
     0
 73
     1
 74
     1
 75
     0
 76
     0
 77
     0
 78
     0
170
     0
171
     2
172
     0
173
     0
174
     0
175
     0
176
     0
177
     0
178
     0
  0
ENDTAB
  0
ENDSEC
  0
SECTION
  2
BLOCKS
  0
BLOCK
  8
0
  2
$MODEL_SPACE
 70
     0
 10
0.0
 20
0.0
 30
0.0
  3
$MODEL_SPACE
  1

  0
ENDBLK
  5
21
  8
0
  0
BLOCK
 67
     1
  8
0
  2
$PAPER_SPACE
 70
     0
 10
0.0
 20
0.0
 30
0.0
  3
$PAPER_SPACE
  1

  0
ENDBLK
  5
1D
 67
     1
  8
0
  0
ENDSEC
  0
SECTION
  2
ENTITIES
  0
LINE
  5
60
  8
DEFAULT
 10
43.23809523809524
 20
111.0
 30
0.0
 11
39.34125744047619
 21
92.3860863095238
 31
0.0
  0
LINE
  5
61
  8
DEFAULT
 10
39.34125744047619
 20
92.3860863095238
 30
0.0
 11
36.00982142857143
 21
74.90297619047618
 31
0.0
  0
LINE
  5
62
  8
DEFAULT
 10
36.00982142857143
 20
74.90297619047618
 30
0.0
 11
30.11190476190476
 21
43.59523809523809
 31
0.0
  0
LINE
  5
63
  8
DEFAULT
 10
30.11190476190476
 20
43.59523809523809
 30
0.0
 11
28.62703218005952
 21
36.57898995535714
 31
0.0
  0
LINE
  5
64
  8
DEFAULT
 10
28.62703218005952
 20
36.57898995535714
 30
0.0
 11
27.07979910714285
 21
29.90364583333333
 31
0.0
  0
LINE
  5
65
  8
DEFAULT
 10
27.07979910714285
 20
29.90364583333333
 30
0.0
 11
25.44110398065476
 21
23.57752046130952
 31
0.0
  0
LINE
  5
66
  8
DEFAULT
 10
25.44110398065476
 20
23.57752046130952
 30
0.0
 11
24.57836390904018
 21
20.54801316034226
 31
0.0
  0
LINE
  5
67
  8
DEFAULT
 10
24.57836390904018
 20
20.54801316034226
 30
0.0
 11
23.68184523809524
 21
17.60892857142857
 31
0.0
  0
LINE
  5
68
  8
DEFAULT
 10
23.68184523809524
 20
17.60892857142857
 30
0.0
 11
22.74791027250744
 21
14.76130603608631
 31
0.0
  0
LINE
  5
69
  8
DEFAULT
 10
22.74791027250744
 20
14.76130603608631
 30
0.0
 11
21.77292131696429
 21
12.00618489583333
 31
0.0
  0
LINE
  5
6A
  8
DEFAULT
 10
21.77292131696429
 20
12.00618489583333
 30
0.0
 11
20.75324067615328
 21
9.3446044921875
 31
0.0
  0
LINE
  5
6B
  8
DEFAULT
 10
20.75324067615328
 20
9.3446044921875
 30
0.0
 11
19.6852306547619
 21
6.777604166666666
 31
0.0
  0
LINE
  5
6C
  8
DEFAULT
 10
19.6852306547619
 20
6.777604166666666
 30
0.0
 11
18.56525355747767
 21
4.30622326078869
 31
0.0
  0
LINE
  5
6D
  8
DEFAULT
 10
18.56525355747767
 20
4.30622326078869
 30
0.0
 11
17.98464057559059
 21
3.106714884440104
 31
0.0
  0
LINE
  5
6E
  8
DEFAULT
 10
17.98464057559059
 20
3.106714884440104
 30
0.0
 11
17.38967168898809
 21
1.931501116071427
 31
0.0
  0
LINE
  5
6F
  8
DEFAULT
 10
17.38967168898809
 20
1.931501116071427
 30
0.0
 11
16.77989218575614
 21
0.7807118733723946
 31
0.0
  0
LINE
  5
70
  8
DEFAULT
 10
16.77989218575614
 20
0.7807118733723946
 30
0.0
 11
16.15484735398065
 21
-0.3455229259672634
 31
0.0
  0
LINE
  5
71
  8
DEFAULT
 10
16.15484735398065
 20
-0.3455229259672634
 30
0.0
 11
15.51408248174758
 21
-1.447073364257814
 31
0.0
  0
LINE
  5
72
  8
DEFAULT
 10
15.51408248174758
 20
-1.447073364257814
 30
0.0
 11
14.85714285714286
 21
-2.523809523809526
 31
0.0
  0
LINE
  5
73
  8
DEFAULT
 10
14.85714285714286
 20
-2.523809523809526
 30
0.0
 11
14.85714285714286
 21
-187.0
 31
0.0
  0
LINE
  5
74
  8
DEFAULT
 10
14.85714285714286
 20
-187.0
 30
0.0
 11
185.1428571428572
 21
-187.0
 31
0.0
  0
LINE
  5
75
  8
DEFAULT
 10
185.1428571428572
 20
-187.0
 30
0.0
 11
185.1428571428572
 21
-2.523809523809526
 31
0.0
  0
LINE
  5
76
  8
DEFAULT
 10
185.1428571428572
 20
-2.523809523809526
 30
0.0
 11
184.4859175182524
 21
-1.447073364257814
 31
0.0
  0
LINE
  5
77
  8
DEFAULT
 10
184.4859175182524
 20
-1.447073364257814
 30
0.0
 11
183.8451526460194
 21
-0.3455229259672634
 31
0.0
  0
LINE
  5
78
  8
DEFAULT
 10
183.8451526460194
 20
-0.3455229259672634
 30
0.0
 11
183.2201078142439
 21
0.7807118733723946
 31
0.0
  0
LINE
  5
79
  8
DEFAULT
 10
183.2201078142439
 20
0.7807118733723946
 30
0.0
 11
182.6103283110119
 21
1.931501116071427
 31
0.0
  0
LINE
  5
7A
  8
DEFAULT
 10
182.6103283110119
 20
1.931501116071427
 30
0.0
 11
182.0153594244094
 21
3.106714884440104
 31
0.0
  0
LINE
  5
7B
  8
DEFAULT
 10
182.0153594244094
 20
3.106714884440104
 30
0.0
 11
181.4347464425223
 21
4.30622326078869
 31
0.0
  0
LINE
  5
7C
  8
DEFAULT
 10
181.4347464425223
 20
4.30622326078869
 30
0.0
 11
180.3147693452381
 21
6.777604166666666
 31
0.0
  0
LINE
  5
7D
  8
DEFAULT
 10
180.3147693452381
 20
6.777604166666666
 30
0.0
 11
179.2467593238468
 21
9.3446044921875
 31
0.0
  0
LINE
  5
7E
  8
DEFAULT
 10
179.2467593238468
 20
9.3446044921875
 30
0.0
 11
178.2270786830358
 21
12.00618489583333
 31
0.0
  0
LINE
  5
7F
  8
DEFAULT
 10
178.2270786830358
 20
12.00618489583333
 30
0.0
 11
177.2520897274926
 21
14.76130603608631
 31
0.0
  0
LINE
  5
80
  8
DEFAULT
 10
177.2520897274926
 20
14.76130603608631
 30
0.0
 11
176.3181547619048
 21
17.60892857142857
 31
0.0
  0
LINE
  5
81
  8
DEFAULT
 10
176.3181547619048
 20
17.60892857142857
 30
0.0
 11
175.4216360909598
 21
20.54801316034226
 31
0.0
  0
LINE
  5
82
  8
DEFAULT
 10
175.4216360909598
 20
20.54801316034226
 30
0.0
 11
174.5588960193452
 21
23.57752046130952
 31
0.0
  0
LINE
  5
83
  8
DEFAULT
 10
174.5588960193452
 20
23.57752046130952
 30
0.0
 11
172.9202008928571
 21
29.90364583333333
 31
0.0
  0
LINE
  5
84
  8
DEFAULT
 10
172.9202008928571
 20
29.90364583333333
 30
0.0
 11
171.3729678199405
 21
36.57898995535714
 31
0.0
  0
LINE
  5
85
  8
DEFAULT
 10
171.3729678199405
 20
36.57898995535714
 30
0.0
 11
169.8880952380952
 21
43.59523809523809
 31
0.0
  0
LINE
  5
86
  8
DEFAULT
 10
169.8880952380952
 20
43.59523809523809
 30
0.0
 11
163.9901785714286
 21
74.90297619047618
 31
0.0
  0
LINE
  5
87
  8
DEFAULT
 10
163.9901785714286
 20
74.90297619047618
 30
0.0
 11
160.6587425595238
 21
92.3860863095238
 31
0.0
  0
LINE
  5
88
  8
DEFAULT
 10
160.6587425595238
 20
92.3860863095238
 30
0.0
 11
156.7619047619048
 21
111.0
 31
0.0
  0
LINE
  5
89
  8
DEFAULT
 10
156.7619047619048
 20
111.0
 30
0.0
 11
43.23809523809524
 21
111.0
 31
0.0
  0
CIRCLE
  5
8A
  8
DEFAULT
 10
-35.49999999999999
 20
-18.32944703427111
 30
9.156078228135737
 40
27.5
  0
CIRCLE
  5
8B
  8
DEFAULT
 10
45.60699534453347
 20
-12.49417055140552
 30
-9.156078228135737
 40
1.499999999999986
210
0.0
220
0.0
230
-1.0
  0
CIRCLE
  5
8C
  8
DEFAULT
 10
25.39300465546638
 20
-12.49417055140592
 30
-9.156078228135737
 40
1.49999999999999
210
0.0
220
0.0
230
-1.0
  0
CIRCLE
  5
8D
  8
DEFAULT
 10
-35.49999999999999
 20
-30.0
 30
9.156078228135737
 40
1.499999999999986
  0
CIRCLE
  5
8E
  8
DEFAULT
 10
-36.41180242289821
 20
38.9686269665962
 30
9.156078228135737
 40
27.5
  0
CIRCLE
  5
8F
  8
DEFAULT
 10
46.51879776743169
 20
44.8039034494618
 30
-9.156078228135737
 40
1.499999999999986
210
0.0
220
0.0
230
-1.0
  0
CIRCLE
  5
90
  8
DEFAULT
 10
26.3048070783646
 20
44.8039034494614
 30
-9.156078228135737
 40
1.49999999999999
210
0.0
220
0.0
230
-1.0
  0
CIRCLE
  5
91
  8
DEFAULT
 10
-36.41180242289821
 20
27.29807400086732
 30
9.156078228135737
 40
1.499999999999986
  0
ENDSEC
  0
EOF
